<svg xmlns="http://www.w3.org/2000/svg" width="96" height="96" viewBox="0 0 96 96" role="img" aria-labelledby="title">
  <title id="title">烈焰核心</title>
  <defs>
    <linearGradient id="bg" x1="0" y1="0" x2="1" y2="1">
      <stop offset="0" stop-color="#16244b"/>
      <stop offset="1" stop-color="#070b1c"/>
    </linearGradient>
    <radialGradient id="halo">
      <stop offset="0" stop-color="#ff653d" stop-opacity=".30"/>
      <stop offset="1" stop-color="#ff653d" stop-opacity="0"/>
    </radialGradient>
  </defs>
  <rect x="1" y="1" width="94" height="94" rx="20" fill="url(#bg)" stroke="#ff653d" stroke-opacity=".62" stroke-width="2"/>
  <circle cx="48" cy="48" r="38" fill="url(#halo)"/>
  <g transform="translate(48 48) scale(1.72)">
    <g stroke="#06101d" stroke-width="2" stroke-linecap="round" stroke-linejoin="round"><path d="M 0 14 C -11 11 -12 2 -5 -5 C -2 -8 -3 -12 1 -15 C 2 -8 9 -7 10 1 C 13 9 7 14 0 14 Z" fill="#f4ffff"></path>
                <path d="M 1 11 C -4 9 -4 4 0 -1 C 1 4 6 5 5 9 C 4 11 2 12 1 11 Z" fill="#ff653d" stroke="none"></path></g>
  </g>
</svg>
